<svg xmlns="http://www.w3.org/2000/svg" width="800" height="600" viewBox="0 0 800 600">
  <rect fill="#f8f9fa" width="800" height="600"/>
  <defs>
    <marker id="arrow" markerWidth="10" markerHeight="10" refX="9" refY="3" orient="auto" markerUnits="strokeWidth">
      <path d="M0,0 L0,6 L9,3 z" fill="#10b981"/>
    </marker>
  </defs>
  
  <!-- App Component -->
  <g>
    <rect x="300" y="50" width="200" height="60" rx="5" ry="5" fill="#d1fae5" stroke="#10b981" stroke-width="2"/>
    <text x="400" y="85" text-anchor="middle" font-family="sans-serif" font-size="18" font-weight="bold" fill="#047857">App</text>
  </g>
  
  <!-- Main Pages Row 1 -->
  <g>
    <rect x="50" y="160" width="150" height="60" rx="5" ry="5" fill="#d1fae5" stroke="#10b981" stroke-width="2"/>
    <text x="125" y="195" text-anchor="middle" font-family="sans-serif" font-size="16" font-weight="bold" fill="#047857">Index</text>
  </g>
  
  <g>
    <rect x="250" y="160" width="150" height="60" rx="5" ry="5" fill="#d1fae5" stroke="#10b981" stroke-width="2"/>
    <text x="325" y="195" text-anchor="middle" font-family="sans-serif" font-size="16" font-weight="bold" fill="#047857">AuthPage</text>
  </g>
  
  <g>
    <rect x="450" y="160" width="150" height="60" rx="5" ry="5" fill="#d1fae5" stroke="#10b981" stroke-width="2"/>
    <text x="525" y="195" text-anchor="middle" font-family="sans-serif" font-size="16" font-weight="bold" fill="#047857">OnboardingPage</text>
  </g>
  
  <g>
    <rect x="650" y="160" width="150" height="60" rx="5" ry="5" fill="#d1fae5" stroke="#10b981" stroke-width="2"/>
    <text x="725" y="195" text-anchor="middle" font-family="sans-serif" font-size="16" font-weight="bold" fill="#047857">RoadmapPage</text>
  </g>
  
  <!-- Main Pages Row 2 -->
  <g>
    <rect x="50" y="270" width="150" height="60" rx="5" ry="5" fill="#d1fae5" stroke="#10b981" stroke-width="2"/>
    <text x="125" y="305" text-anchor="middle" font-family="sans-serif" font-size="16" font-weight="bold" fill="#047857">QuizzesPage</text>
  </g>
  
  <g>
    <rect x="250" y="270" width="150" height="60" rx="5" ry="5" fill="#d1fae5" stroke="#10b981" stroke-width="2"/>
    <text x="325" y="305" text-anchor="middle" font-family="sans-serif" font-size="16" font-weight="bold" fill="#047857">CommunityPage</text>
  </g>
  
  <g>
    <rect x="450" y="270" width="150" height="60" rx="5" ry="5" fill="#d1fae5" stroke="#10b981" stroke-width="2"/>
    <text x="525" y="305" text-anchor="middle" font-family="sans-serif" font-size="16" font-weight="bold" fill="#047857">CreatePostPage</text>
  </g>
  
  <g>
    <rect x="650" y="270" width="150" height="60" rx="5" ry="5" fill="#d1fae5" stroke="#10b981" stroke-width="2"/>
    <text x="725" y="305" text-anchor="middle" font-family="sans-serif" font-size="16" font-weight="bold" fill="#047857">PostPage</text>
  </g>
  
  <!-- Other Pages -->
  <g>
    <rect x="450" y="380" width="150" height="60" rx="5" ry="5" fill="#d1fae5" stroke="#10b981" stroke-width="2"/>
    <text x="525" y="415" text-anchor="middle" font-family="sans-serif" font-size="16" font-weight="bold" fill="#047857">ResetPassword</text>
  </g>
  
  <g>
    <rect x="650" y="380" width="150" height="60" rx="5" ry="5" fill="#d1fae5" stroke="#10b981" stroke-width="2"/>
    <text x="725" y="415" text-anchor="middle" font-family="sans-serif" font-size="16" font-weight="bold" fill="#047857">NotFound</text>
  </g>
  
  <!-- New Class Diagram Page -->
  <g>
    <rect x="250" y="380" width="150" height="60" rx="5" ry="5" fill="#d1fae5" stroke="#10b981" stroke-width="2"/>
    <text x="325" y="415" text-anchor="middle" font-family="sans-serif" font-size="16" font-weight="bold" fill="#047857">ClassDiagramPage</text>
  </g>
  
  <!-- Relationships -->
  <path d="M400 110 L125 160" stroke="#10b981" stroke-width="2" marker-end="url(#arrow)"/>
  <path d="M400 110 L325 160" stroke="#10b981" stroke-width="2" marker-end="url(#arrow)"/>
  <path d="M400 110 L525 160" stroke="#10b981" stroke-width="2" marker-end="url(#arrow)"/>
  <path d="M400 110 L725 160" stroke="#10b981" stroke-width="2" marker-end="url(#arrow)"/>
  
  <path d="M400 110 L125 270" stroke="#10b981" stroke-width="2" marker-end="url(#arrow)"/>
  <path d="M400 110 L325 270" stroke="#10b981" stroke-width="2" marker-end="url(#arrow)"/>
  <path d="M400 110 L525 270" stroke="#10b981" stroke-width="2" marker-end="url(#arrow)"/>
  <path d="M400 110 L725 270" stroke="#10b981" stroke-width="2" marker-end="url(#arrow)"/>
  
  <path d="M400 110 L525 380" stroke="#10b981" stroke-width="2" marker-end="url(#arrow)"/>
  <path d="M400 110 L725 380" stroke="#10b981" stroke-width="2" marker-end="url(#arrow)"/>
  <path d="M400 110 L325 380" stroke="#10b981" stroke-width="2" marker-end="url(#arrow)"/>
  
  <path d="M325 330 L325 380" stroke="#10b981" stroke-width="2" marker-end="url(#arrow)"/>
  <path d="M325 330 L525 270" stroke="#10b981" stroke-width="2" marker-end="url(#arrow)"/>
  <path d="M525 330 L725 270" stroke="#10b981" stroke-width="2" marker-end="url(#arrow)"/>
  <path d="M325 160 L525 380" stroke="#10b981" stroke-width="2" marker-end="url(#arrow)"/>
  
  <!-- Flow Annotations -->
  <text x="210" y="145" font-family="sans-serif" font-size="12" fill="#059669">Home</text>
  <text x="360" y="145" font-family="sans-serif" font-size="12" fill="#059669">Authentication</text>
  <text x="590" y="145" font-family="sans-serif" font-size="12" fill="#059669">User Setup</text>
  <text x="520" y="365" font-family="sans-serif" font-size="12" fill="#059669">Password Reset</text>
  <text x="425" y="340" font-family="sans-serif" font-size="12" fill="#059669">Create</text>
  <text x="635" y="340" font-family="sans-serif" font-size="12" fill="#059669">View</text>
</svg>
